# xmcd
#
# Track frame offsets:
#	150
#	16312
#	36050
#	53200
#	70087
#	88337
#	99975
#	121200
#	140150
#	160400
#	182537
#	203712
#	225620
#
# Disc length: 3265 seconds
#
# Revision: 0
# Processed by: cddbd v1.5.1PL0 Copyright (c) Steve Scherf et al.
# Submitted via: audiograbber 1.83.01
#
DISCID=ac0cbf0d
DTITLE=Pat Fritz and the Gods of Soul - Keep on movin'
DYEAR=1992
DGENRE=Soul
TTITLE0=Keep on movin'
TTITLE1=Summertime
TTITLE2=Hard Tinmes coming over now
TTITLE3=Move on
TTITLE4=Brother
TTITLE5=Watch out
TTITLE6=Baby get up
TTITLE7=Love
TTITLE8=Leave more Love
TTITLE9=You first get the Blues
TTITLE10=Looking for fun
TTITLE11=For You
TTITLE12=Stick Together
EXTD=
EXTT0=
EXTT1=
EXTT2=
EXTT3=
EXTT4=
EXTT5=
EXTT6=
EXTT7=
EXTT8=
EXTT9=
EXTT10=
EXTT11=
EXTT12=
PLAYORDER=
